<?xml version="1.0" encoding="UTF-8"?>
<svg width="18px" height="19px" viewBox="0 0 18 19" version="1.1" xmlns="http://www.w3.org/2000/svg" xmlns:xlink="http://www.w3.org/1999/xlink">
    <!-- Generator: Sketch 64 (93537) - https://sketch.com -->
    <title>mdpi/形状结合</title>
    <desc>Created with Sketch.</desc>
    <g id="页面-1" stroke="none" stroke-width="1" fill="none" fill-rule="evenodd" opacity="0.502534412">
        <g id="6邀请有礼备份-5" transform="translate(-320.000000, -117.000000)" fill="#FFFFFF" fill-rule="nonzero">
            <path d="M337.278038,122.565151 C339.205434,127.122135 337.144424,132.384526 332.634903,134.420498 C331.511999,134.894591 330.304972,135.137209 329.086093,135.133861 C324.76198,135.120742 321.042453,132.070579 320.182794,127.83276 C319.323134,123.594941 321.560076,119.336484 325.537283,117.639441 C330.139117,115.821727 335.350642,118.008167 337.278038,122.565151 Z M329.086093,118.334937 C324.841788,118.334937 321.399977,121.79458 321.399977,126.021053 C321.399977,130.247525 324.841788,133.707169 329.086093,133.707169 C333.330399,133.707169 336.772209,130.265358 336.772209,126.021053 C336.772209,121.776747 333.312565,118.334937 329.086093,118.334937 Z M326.197112,122.115578 L329.087,125.02 L331.975074,122.133412 C332.255771,121.852715 332.710871,121.852715 332.991567,122.133412 C333.272264,122.414108 333.272264,122.869208 332.991567,123.149905 L330.097,126.036 L332.973734,128.927867 C333.173552,129.131665 333.232655,129.434952 333.123984,129.698867 C333.015313,129.962783 332.759789,130.136517 332.474404,130.140526 C332.28625,130.137846 332.106776,130.060928 331.975074,129.926527 L329.089,127.041 L326.197112,129.926527 C326.061076,130.065335 325.874291,130.142625 325.679949,130.140567 C325.394564,130.136517 325.13904,129.962783 325.030369,129.698867 C324.921698,129.434952 324.980801,129.131665 325.180619,128.927867 L328.078,126.029 L325.180619,123.132072 C324.99904,122.950493 324.928125,122.685835 324.994587,122.437794 C325.06105,122.189752 325.254793,121.99601 325.502834,121.929547 C325.750876,121.863085 326.015533,121.933999 326.197112,122.115578 Z" id="形状结合"></path>
        </g>
    </g>
</svg>